<svg width="2" height="64" viewBox="0 0 2 64" fill="none" xmlns="http://www.w3.org/2000/svg">
<mask id="path-1-inside-1_23_2103" fill="white">
<path d="M0 0H2V64H0V0Z"/>
</mask>
<path d="M2 64H3V60.8H2H1V64H2ZM2 56.5333H3V50.1333H2H1V56.5333H2ZM2 45.8667H3V39.4667H2H1V45.8667H2ZM2 35.2H3V28.8H2H1V35.2H2ZM2 24.5333H3V18.1333H2H1V24.5333H2ZM2 13.8667H3V7.46666H2H1V13.8667H2ZM2 3.2H3V0H2H1V3.2H2ZM2 64H4V60.8H2H0V64H2ZM2 56.5333H4V50.1333H2H0V56.5333H2ZM2 45.8667H4V39.4667H2H0V45.8667H2ZM2 35.2H4V28.8H2H0V35.2H2ZM2 24.5333H4V18.1333H2H0V24.5333H2ZM2 13.8667H4V7.46666H2H0V13.8667H2ZM2 3.2H4V0H2H0V3.2H2Z" fill="#E5E7EB" mask="url(#path-1-inside-1_23_2103)"/>
</svg>
